<?xml version="1.0" encoding="UTF-8" standalone="no"?><!-- Generator: Gravit.io --><svg xmlns="http://www.w3.org/2000/svg" xmlns:xlink="http://www.w3.org/1999/xlink" style="isolation:isolate" viewBox="0 0 64 43" width="64pt" height="43pt"><defs><clipPath id="_clipPath_XIsNmRsu7ewX33ajf4VPlG5QgeZMGHGC"><rect width="64" height="43"/></clipPath></defs><g clip-path="url(#_clipPath_XIsNmRsu7ewX33ajf4VPlG5QgeZMGHGC)"><g><g><g><g><path d=" M 33.163 26.669 C 34.255 28.735 40.33 30.262 41.721 30.262 C 42.592 30.262 43.301 29.847 43.989 29.153 C 44.133 29.009 44.726 28.395 44.868 28.229 C 44.911 27.839 45.203 28.06 45.837 28.229 C 45.869 27.921 52.888 28.728 52.9 28.417 C 52.911 28.145 53.569 27.568 52.868 28.385 C 52.728 28.549 53.384 24.547 52.908 28.422 C 54.553 28.329 55.962 28.187 56.95 28.085 C 57.559 28.025 58.028 27.977 58.322 27.963 C 58.906 27.933 59.41 27.91 59.875 27.91 C 60.931 27.91 62.094 28.02 62.706 28.829 C 63.177 29.449 63.236 30.362 62.883 31.618 C 61.972 34.871 61.321 37.215 61.321 37.215 L 61.253 37.461 L 61.018 37.559 C 60.909 37.604 50.007 42.021 40.976 42.021 C 33.869 42.021 29.728 39.384 28.67 34.186 C 26.191 22.003 17.691 18.007 15.253 17.098 L 15.382 41.373 L 6.865 41.373 L 6.792 40.94 C 6.563 39.576 1.185 7.519 1.316 4.89 C 1.384 3.517 1.717 1.69 3.812 1.69 C 4.617 1.69 5.657 1.97 6.99 2.546 L 7.255 2.659 C 10.106 3.887 12.722 5.147 15.132 6.435" fill="rgb(0,0,0)"/><line x1="50.431" y1="28.604" x2="51.431" y2="28.604"/><line x1="47.556" y1="26.51" x2="48.556" y2="26.51"/><line x1="47.15" y1="26.385" x2="48.15" y2="26.385"/><line x1="46.118" y1="28.385" x2="47.118" y2="28.479"/><path d=" M 48.4 28.417 C 49.484 28.326 50.53 28.605 51.587 28.698" fill="none"/><g><path d=" M 16.833 7.37 C 16.829 7.361 16.83 7.352 16.826 7.344" fill="rgb(0,0,0)"/></g></g></g></g></g></g></svg>